# xmcd
#
# Track frame offsets:
#	150
#	16118
#	27823
#	40823
#	52103
#	61745
#	72141
#	82596
#	96005
#	107475
#	124556
#	137691
#	148886
#	158867
#	170832
#	183140
#	195313
#	208193
#	220546
#	231632
#	245376
#	256932
#
# Disc length: 3696 seconds
#
# Revision: 0
# Processed by: cddbd v1.4PL0 Copyright (c) Steve Scherf et al.
# Submitted via: EasyCDDAExtractor 4.6.9.1
#
DISCID=260e6e16
DTITLE=Patsy Cline - The Patsy Cline Collection (Sweet Dreams) - Disc 4
DYEAR=1996
DGENRE=Country
TTITLE0=Why Can't He Be You
TTITLE1=Your Kinda Love
TTITLE2=When Need A Laugh
TTITLE3=Leavin' On Your Mind
TTITLE4=Back In Baby's Arms
TTITLE5=Tra Le La Le Triangle
TTITLE6=That's A How Heartbreak Begins
TTITLE7=Leavin' On Your Mind (Radio transcription)
TTITLE8=Tennessee Walz (Radio transcription)
TTITLE9=Faded Love
TTITLE10=Someday (You'll Want Me To Love You)
TTITLE11=Love Letters In The Sand
TTITLE12=Blue Moon Of Kentucky
TTITLE13=Sweet Dreams (Of You)
TTITLE14=Always
TTITLE15=Does Your Heart Beat For Me
TTITLE16=Bill Bailey, Won't You Please Come Home
TTITLE17=He Called Me Baby
TTITLE18=Crazy Arms
TTITLE19=You Took Him Off My Hands
TTITLE20=I'll Sail My Ship Alone
TTITLE21=Just A Closer Walk With Thee (Live) (Recordingdate unknown)
EXTD=
EXTT0=
EXTT1=
EXTT2=
EXTT3=
EXTT4=
EXTT5=
EXTT6=
EXTT7=
EXTT8=
EXTT9=
EXTT10=
EXTT11=
EXTT12=
EXTT13=
EXTT14=
EXTT15=
EXTT16=
EXTT17=
EXTT18=
EXTT19=
EXTT20=
EXTT21=
PLAYORDER=
